<svg viewBox="0 0 3 2" xmlns="http://www.w3.org/2000/svg">
  <rect fill="#EE1C25" width="3" height="2"/>
  <g transform="translate(0.15,0.15)" fill="#FFFF00">
    <polygon points="0.35,0 0.44,0.28 0.73,0.28 0.49,0.45 0.58,0.73 0.35,0.56 0.12,0.73 0.21,0.45 -0.03,0.28 0.26,0.28"/>
    <polygon points="0.85,0.05 0.88,0.14 0.97,0.14 0.90,0.20 0.93,0.28 0.85,0.22 0.78,0.28 0.81,0.20 0.74,0.14 0.83,0.14" transform="rotate(23,0.85,0.16)"/>
    <polygon points="1.05,0.20 1.08,0.29 1.17,0.29 1.10,0.35 1.13,0.43 1.05,0.37 0.98,0.43 1.01,0.35 0.94,0.29 1.03,0.29" transform="rotate(-10,1.05,0.30)"/>
    <polygon points="1.05,0.50 1.08,0.59 1.17,0.59 1.10,0.65 1.13,0.73 1.05,0.67 0.98,0.73 1.01,0.65 0.94,0.59 1.03,0.59" transform="rotate(-30,1.05,0.60)"/>
    <polygon points="0.85,0.65 0.88,0.74 0.97,0.74 0.90,0.80 0.93,0.88 0.85,0.82 0.78,0.88 0.81,0.80 0.74,0.74 0.83,0.74" transform="rotate(-45,0.85,0.76)"/>
  </g>
</svg>
